<svg xmlns="http://www.w3.org/2000/svg" xmlns:xlink="http://www.w3.org/1999/xlink" width="390" zoomAndPan="magnify" viewBox="0 0 292.5 632.999981" height="844" preserveAspectRatio="xMidYMid meet" version="1.0"><defs><filter x="0%" y="0%" width="100%" height="100%" id="c824bb5560"><feColorMatrix values="0 0 0 0 1 0 0 0 0 1 0 0 0 0 1 0 0 0 1 0" color-interpolation-filters="sRGB"/></filter><clipPath id="6eb13efd6a"><path d="M 0 0.539062 L 292 0.539062 L 292 632.457031 L 0 632.457031 Z M 0 0.539062 " clip-rule="nonzero"/></clipPath><clipPath id="579655903c"><path d="M 0 0.539062 L 171 0.539062 L 171 336 L 0 336 Z M 0 0.539062 " clip-rule="nonzero"/></clipPath><mask id="f3b8d3178c"><g filter="url(#c824bb5560)"><rect x="-29.25" width="351" fill="#000000" y="-63.299998" height="759.599977" fill-opacity="0.6"/></g></mask><clipPath id="1a1eddd2db"><path d="M 0 0.539062 L 113 0.539062 L 113 296 L 0 296 Z M 0 0.539062 " clip-rule="nonzero"/></clipPath><clipPath id="650a573f6c"><path d="M -211.75 73 L 67.320312 -37.730469 L 171.976562 226.027344 L -107.09375 336.757812 Z M -211.75 73 " clip-rule="nonzero"/></clipPath><clipPath id="1cdfe9e38a"><path d="M -211.75 73 L 67.320312 -37.730469 L 171.976562 226.027344 L -107.09375 336.757812 Z M -211.75 73 " clip-rule="nonzero"/></clipPath><clipPath id="3e7d7a95d1"><path d="M 0 18 L 89 18 L 89 270 L 0 270 Z M 0 18 " clip-rule="nonzero"/></clipPath><clipPath id="6cbeabf174"><path d="M -211.75 73 L 67.320312 -37.730469 L 171.976562 226.027344 L -107.09375 336.757812 Z M -211.75 73 " clip-rule="nonzero"/></clipPath><clipPath id="af60dd98f1"><path d="M -211.75 73 L 67.320312 -37.730469 L 171.976562 226.027344 L -107.09375 336.757812 Z M -211.75 73 " clip-rule="nonzero"/></clipPath><clipPath id="e565b504ce"><path d="M 0 48 L 64 48 L 64 243 L 0 243 Z M 0 48 " clip-rule="nonzero"/></clipPath><clipPath id="0b938d5c44"><path d="M -211.75 73 L 67.320312 -37.730469 L 171.976562 226.027344 L -107.09375 336.757812 Z M -211.75 73 " clip-rule="nonzero"/></clipPath><clipPath id="eb393a6e2c"><path d="M -211.75 73 L 67.320312 -37.730469 L 171.976562 226.027344 L -107.09375 336.757812 Z M -211.75 73 " clip-rule="nonzero"/></clipPath><clipPath id="22208f2aea"><rect x="0" width="171" y="0" height="336"/></clipPath><clipPath id="497461694c"><path d="M 0 514 L 292 514 L 292 632.457031 L 0 632.457031 Z M 0 514 " clip-rule="nonzero"/></clipPath><clipPath id="5fcbee47e0"><path d="M -86.015625 568.78125 L 262.941406 446.191406 L 378.089844 773.960938 L 29.128906 896.550781 Z M -86.015625 568.78125 " clip-rule="nonzero"/></clipPath><clipPath id="8d30063e79"><path d="M -86.015625 568.78125 L 262.941406 446.191406 L 378.089844 773.960938 L 29.128906 896.550781 Z M -86.015625 568.78125 " clip-rule="nonzero"/></clipPath><clipPath id="7cd96441a2"><path d="M 230 333 L 277 333 L 277 359 L 230 359 Z M 230 333 " clip-rule="nonzero"/></clipPath><clipPath id="879bf82328"><path d="M 263.988281 321.0625 L 277.863281 359.039062 L 243.402344 371.628906 L 229.527344 333.652344 Z M 263.988281 321.0625 " clip-rule="nonzero"/></clipPath><clipPath id="c048ede4f5"><path d="M 263.988281 321.0625 L 277.863281 359.039062 L 243.402344 371.628906 L 229.527344 333.652344 Z M 263.988281 321.0625 " clip-rule="nonzero"/></clipPath><clipPath id="bf8110f028"><path d="M 247 360 L 260 360 L 260 366 L 247 366 Z M 247 360 " clip-rule="nonzero"/></clipPath><clipPath id="f9dfa06b7f"><path d="M 263.988281 321.0625 L 277.863281 359.039062 L 243.402344 371.628906 L 229.527344 333.652344 Z M 263.988281 321.0625 " clip-rule="nonzero"/></clipPath><clipPath id="231e6f9727"><path d="M 263.988281 321.0625 L 277.863281 359.039062 L 243.402344 371.628906 L 229.527344 333.652344 Z M 263.988281 321.0625 " clip-rule="nonzero"/></clipPath><mask id="48ec17bd8f"><g filter="url(#c824bb5560)"><rect x="-29.25" width="351" fill="#000000" y="-63.299998" height="759.599977" fill-opacity="0.89"/></g></mask><clipPath id="e7abadc603"><path d="M 10 12 L 49.667969 12 L 49.667969 40 L 10 40 Z M 10 12 " clip-rule="nonzero"/></clipPath><clipPath id="4a6a690475"><path d="M 49.609375 12.945312 L 13.609375 48.945312 L 0.902344 36.238281 L 36.902344 0.238281 Z M 49.609375 12.945312 " clip-rule="nonzero"/></clipPath><clipPath id="68933407a5"><path d="M 49.609375 12.945312 L 13.609375 48.945312 L 0.902344 36.238281 L 36.902344 0.238281 Z M 49.609375 12.945312 " clip-rule="nonzero"/></clipPath><clipPath id="cc4c539d1b"><path d="M 17 13 L 28 13 L 28 22 L 17 22 Z M 17 13 " clip-rule="nonzero"/></clipPath><clipPath id="7f2ae93235"><path d="M 49.609375 12.945312 L 13.609375 48.945312 L 0.902344 36.238281 L 36.902344 0.238281 Z M 49.609375 12.945312 " clip-rule="nonzero"/></clipPath><clipPath id="ab6abe4f53"><path d="M 49.609375 12.945312 L 13.609375 48.945312 L 0.902344 36.238281 L 36.902344 0.238281 Z M 49.609375 12.945312 " clip-rule="nonzero"/></clipPath><clipPath id="bb46c68f29"><path d="M 7 40 L 10 40 L 10 44 L 7 44 Z M 7 40 " clip-rule="nonzero"/></clipPath><clipPath id="adb67f6565"><path d="M 49.609375 12.945312 L 13.609375 48.945312 L 0.902344 36.238281 L 36.902344 0.238281 Z M 49.609375 12.945312 " clip-rule="nonzero"/></clipPath><clipPath id="40851740eb"><path d="M 49.609375 12.945312 L 13.609375 48.945312 L 0.902344 36.238281 L 36.902344 0.238281 Z M 49.609375 12.945312 " clip-rule="nonzero"/></clipPath><clipPath id="bb2500f4d1"><rect x="0" width="50" y="0" height="50"/></clipPath><clipPath id="2853e3d2f9"><path d="M 185 151 L 292 151 L 292 354 L 185 354 Z M 185 151 " clip-rule="nonzero"/></clipPath><clipPath id="2f6c2cecc1"><path d="M 144.066406 252.648438 L 275.160156 105.71875 L 413.710938 229.335938 L 282.617188 376.269531 Z M 144.066406 252.648438 " clip-rule="nonzero"/></clipPath><clipPath id="2784ff0f27"><path d="M 144.066406 252.648438 L 275.160156 105.71875 L 413.710938 229.335938 L 282.617188 376.269531 Z M 144.066406 252.648438 " clip-rule="nonzero"/></clipPath><mask id="c0ad05c8ab"><g filter="url(#c824bb5560)"><rect x="-29.25" width="351" fill="#000000" y="-63.299998" height="759.599977" fill-opacity="0.6"/></g></mask><clipPath id="544a105889"><path d="M 30 15 L 105 15 L 105 180 L 30 180 Z M 30 15 " clip-rule="nonzero"/></clipPath><clipPath id="65d173fe32"><path d="M -1.738281 99.03125 L 115.800781 -1.988281 L 211.453125 109.300781 L 93.917969 210.324219 Z M -1.738281 99.03125 " clip-rule="nonzero"/></clipPath><clipPath id="d8d9ce985e"><path d="M -1.738281 99.03125 L 115.800781 -1.988281 L 211.453125 109.300781 L 93.917969 210.324219 Z M -1.738281 99.03125 " clip-rule="nonzero"/></clipPath><clipPath id="c8fa5f10b5"><path d="M 29 16 L 105 16 L 105 180 L 29 180 Z M 29 16 " clip-rule="nonzero"/></clipPath><clipPath id="552b956412"><path d="M -1.738281 99.03125 L 115.800781 -1.988281 L 211.453125 109.300781 L 93.917969 210.324219 Z M -1.738281 99.03125 " clip-rule="nonzero"/></clipPath><clipPath id="ffe6d30800"><path d="M -1.738281 99.03125 L 115.800781 -1.988281 L 211.453125 109.300781 L 93.917969 210.324219 Z M -1.738281 99.03125 " clip-rule="nonzero"/></clipPath><clipPath id="4969dc1d84"><path d="M 43 32 L 105 32 L 105 166 L 43 166 Z M 43 32 " clip-rule="nonzero"/></clipPath><clipPath id="9f6d32ecc9"><path d="M -1.738281 99.03125 L 115.800781 -1.988281 L 211.453125 109.300781 L 93.917969 210.324219 Z M -1.738281 99.03125 " clip-rule="nonzero"/></clipPath><clipPath id="5370e9d2aa"><path d="M -1.738281 99.03125 L 115.800781 -1.988281 L 211.453125 109.300781 L 93.917969 210.324219 Z M -1.738281 99.03125 " clip-rule="nonzero"/></clipPath><clipPath id="0d4dc38942"><path d="M 57 48 L 105 48 L 105 153 L 57 153 Z M 57 48 " clip-rule="nonzero"/></clipPath><clipPath id="547edbcd2a"><path d="M -1.738281 99.03125 L 115.800781 -1.988281 L 211.453125 109.300781 L 93.917969 210.324219 Z M -1.738281 99.03125 " clip-rule="nonzero"/></clipPath><clipPath id="4acd7121c4"><path d="M -1.738281 99.03125 L 115.800781 -1.988281 L 211.453125 109.300781 L 93.917969 210.324219 Z M -1.738281 99.03125 " clip-rule="nonzero"/></clipPath><clipPath id="21198695da"><rect x="0" width="105" y="0" height="210"/></clipPath></defs><g clip-path="url(#6eb13efd6a)"><path fill="#ffffff" d="M 0 0.539062 L 292 0.539062 L 292 632.460938 L 0 632.460938 Z M 0 0.539062 " fill-opacity="1" fill-rule="nonzero"/><path fill="#1f2937" d="M 0 0.539062 L 292 0.539062 L 292 632.460938 L 0 632.460938 Z M 0 0.539062 " fill-opacity="1" fill-rule="nonzero"/></g><g clip-path="url(#579655903c)"><g mask="url(#f3b8d3178c)"><g transform="matrix(1, 0, 0, 1, 0, -0.000000000000015987)"><g clip-path="url(#22208f2aea)"><g clip-path="url(#1a1eddd2db)"><g clip-path="url(#650a573f6c)"><g clip-path="url(#1cdfe9e38a)"><path fill="#f2f2f2" d="M 5.109375 290.21875 C -26.917969 302.925781 -64.507812 291 -91.359375 278.035156 C -122.390625 263.066406 -146.296875 236.578125 -158.59375 203.515625 C -164.890625 186.550781 -168.257812 169.242188 -168.28125 153.339844 C -168.285156 135.136719 -164.042969 118.964844 -155.664062 105.363281 C -147.8125 92.625 -135.265625 86.773438 -118.8125 81.9375 C -115.582031 80.984375 -112.222656 80.089844 -109.019531 79.199219 C -97.082031 75.941406 -84.730469 72.625 -74.273438 66.179688 L -73.757812 67.070312 L -74.273438 66.179688 C -65.84375 60.976562 -57.539062 53.796875 -47.289062 42.84375 C -43.292969 38.578125 -39.28125 34.089844 -35.484375 29.738281 L -34.90625 29.128906 C -30.410156 24.0625 -26.625 19.828125 -22.703125 15.648438 C -7.324219 -0.566406 10.164062 -15.050781 33.566406 -11.324219 C 54.515625 -7.992188 73.445312 5.542969 88.246094 27.828125 C 101.027344 47.085938 109.886719 71.890625 112.488281 95.953125 C 114.695312 116.671875 104.308594 133.203125 92.792969 147.996094 C 89.15625 152.613281 85.292969 157.207031 81.550781 161.695312 L 81.523438 161.761719 C 78.804688 164.972656 75.984375 168.335938 73.257812 171.65625 C 67.851562 178.285156 61.023438 187.117188 56.011719 196.816406 C 51.667969 205.15625 48.851562 214.308594 46.828125 221.34375 C 45.78125 225.039062 44.800781 228.765625 43.875 232.359375 C 42.613281 237.175781 41.328125 242.0625 39.9375 246.824219 C 35.296875 262.277344 28.875 277.78125 13.167969 286.421875 C 10.511719 287.855469 7.847656 289.132812 5.109375 290.21875 Z M -129.738281 87.75 C -140.175781 91.890625 -148.355469 97.324219 -153.929688 106.425781 C -162.101562 119.726562 -166.21875 135.519531 -166.203125 153.335938 C -166.179688 168.964844 -162.90625 186.035156 -156.640625 202.792969 C -144.527344 235.382812 -121.019531 261.429688 -90.445312 276.195312 C -61.761719 290.074219 -20.652344 302.738281 12.183594 284.625 C 27.21875 276.363281 33.46875 261.253906 37.957031 246.242188 C 39.367188 241.527344 40.652344 236.644531 41.882812 231.890625 C 42.835938 228.230469 43.820312 224.507812 44.847656 220.761719 C 46.878906 213.617188 49.753906 204.328125 54.15625 195.855469 C 59.289062 186.058594 66.175781 177.09375 71.609375 170.398438 C 74.320312 167.027344 77.160156 163.714844 79.855469 160.457031 L 79.886719 160.390625 C 83.644531 155.945312 87.507812 151.351562 91.097656 146.757812 C 102.375 132.332031 112.546875 116.214844 110.394531 96.183594 C 107.828125 72.488281 99.144531 47.996094 86.507812 28.957031 C 68.210938 1.445312 47.40625 -7.03125 33.210938 -9.328125 C 10.734375 -12.925781 -6.246094 1.191406 -21.273438 17.050781 C -25.210938 21.179688 -28.949219 25.398438 -33.449219 30.460938 L -34.023438 31.074219 C -37.867188 35.441406 -41.835938 39.914062 -45.875 44.195312 C -52.859375 51.667969 -62.25 61.082031 -73.28125 67.863281 C -84 74.46875 -96.492188 77.839844 -108.589844 81.109375 C -111.792969 81.996094 -115.152344 82.894531 -118.335938 83.828125 C -122.324219 85.082031 -126.148438 86.324219 -129.738281 87.75 Z M -129.738281 87.75 " fill-opacity="1" fill-rule="nonzero"/><path fill="#f2f2f2" d="M 4.636719 290.40625 C -27.390625 303.113281 -64.980469 291.1875 -91.832031 278.222656 C -122.863281 263.253906 -146.769531 236.765625 -159.066406 203.703125 C -165.363281 186.738281 -168.730469 169.429688 -168.753906 153.527344 C -168.757812 135.324219 -164.515625 119.152344 -156.132812 105.550781 C -148.285156 92.8125 -135.738281 86.960938 -119.285156 82.125 C -116.054688 81.171875 -112.691406 80.277344 -109.492188 79.386719 C -97.554688 76.128906 -85.203125 72.8125 -74.746094 66.367188 L -74.230469 67.257812 L -74.746094 66.367188 C -66.316406 61.164062 -58.011719 53.984375 -47.761719 43.03125 C -43.765625 38.765625 -39.753906 34.277344 -35.957031 29.925781 L -35.378906 29.316406 C -30.882812 24.25 -27.097656 20.015625 -23.175781 15.835938 C -7.796875 -0.382812 9.691406 -14.863281 33.09375 -11.136719 C 54.042969 -7.804688 72.972656 5.730469 87.773438 28.015625 C 100.554688 47.273438 109.414062 72.078125 112.015625 96.140625 C 114.222656 116.859375 103.835938 133.390625 92.320312 148.183594 C 88.683594 152.800781 84.820312 157.394531 81.078125 161.882812 L 81.050781 161.949219 C 78.335938 165.160156 75.511719 168.523438 72.785156 171.84375 C 67.378906 178.472656 60.550781 187.304688 55.542969 197.003906 C 51.195312 205.34375 48.378906 214.496094 46.355469 221.53125 C 45.308594 225.226562 44.328125 228.953125 43.402344 232.546875 C 42.140625 237.363281 40.855469 242.25 39.464844 247.011719 C 34.824219 262.464844 28.402344 277.96875 12.695312 286.609375 C 10.039062 288.042969 7.375 289.320312 4.636719 290.40625 Z M -130.210938 87.9375 C -140.648438 92.078125 -148.828125 97.511719 -154.402344 106.613281 C -162.574219 119.914062 -166.691406 135.707031 -166.675781 153.523438 C -166.652344 169.152344 -163.378906 186.222656 -157.113281 202.980469 C -145 235.570312 -121.492188 261.617188 -90.917969 276.382812 C -62.234375 290.261719 -21.125 302.925781 11.710938 284.8125 C 26.746094 276.550781 32.996094 261.441406 37.484375 246.429688 C 38.894531 241.714844 40.179688 236.832031 41.410156 232.078125 C 42.367188 228.417969 43.347656 224.695312 44.378906 220.949219 C 46.40625 213.804688 49.28125 204.515625 53.683594 196.042969 C 58.816406 186.246094 65.703125 177.28125 71.136719 170.585938 C 73.847656 167.214844 76.6875 163.902344 79.386719 160.644531 L 79.414062 160.578125 C 83.171875 156.132812 87.035156 151.539062 90.625 146.945312 C 101.902344 132.519531 112.074219 116.402344 109.921875 96.371094 C 107.355469 72.675781 98.675781 48.183594 86.035156 29.144531 C 67.738281 1.632812 46.933594 -6.84375 32.738281 -9.140625 C 10.261719 -12.738281 -6.71875 1.378906 -21.746094 17.238281 C -25.683594 21.367188 -29.421875 25.585938 -33.917969 30.648438 L -34.496094 31.261719 C -38.339844 35.628906 -42.308594 40.101562 -46.347656 44.382812 C -53.332031 51.855469 -62.71875 61.269531 -73.75 68.050781 C -84.472656 74.65625 -96.964844 78.027344 -109.0625 81.296875 C -112.265625 82.183594 -115.625 83.082031 -118.808594 84.015625 C -122.796875 85.269531 -126.621094 86.511719 -130.210938 87.9375 Z M -130.210938 87.9375 " fill-opacity="1" fill-rule="nonzero"/></g></g></g><g clip-path="url(#3e7d7a95d1)"><g clip-path="url(#6cbeabf174)"><g clip-path="url(#af60dd98f1)"><path fill="#f2f2f2" d="M 0.375 264.652344 C -25.746094 275.015625 -56.40625 265.257812 -78.308594 254.707031 C -103.585938 242.539062 -123.078125 220.96875 -133.117188 194.007812 C -138.269531 180.195312 -140.996094 166.023438 -140.980469 153.113281 C -140.976562 138.242188 -137.511719 125.058594 -130.714844 113.945312 C -124.300781 103.523438 -114.054688 98.75 -100.597656 94.777344 C -98 94.019531 -95.242188 93.253906 -92.628906 92.542969 C -82.910156 89.890625 -72.84375 87.152344 -64.363281 81.929688 C -57.5 77.730469 -50.746094 71.878906 -42.40625 62.996094 L -41.644531 63.675781 L -42.40625 62.996094 C -39.144531 59.511719 -35.933594 55.886719 -32.800781 52.347656 L -32.347656 51.839844 C -28.785156 47.859375 -25.625 44.253906 -22.386719 40.835938 C -9.820312 27.59375 4.453125 15.753906 23.601562 18.816406 C 40.703125 21.542969 56.175781 32.570312 68.269531 50.789062 C 78.710938 66.492188 85.914062 86.707031 88.007812 106.320312 C 89.8125 123.265625 81.328125 136.746094 71.898438 148.796875 C 68.953125 152.535156 65.796875 156.300781 62.703125 159.9375 L 62.675781 160.003906 C 60.488281 162.621094 58.175781 165.339844 55.980469 168.070312 C 51.613281 173.464844 46.046875 180.652344 41.949219 188.511719 C 38.398438 195.277344 36.113281 202.742188 34.503906 208.46875 C 33.675781 211.476562 32.863281 214.53125 32.109375 217.453125 C 31.089844 221.355469 30.058594 225.375 28.90625 229.222656 C 25.125 241.875 19.863281 254.515625 7.027344 261.574219 C 4.824219 262.777344 2.59375 263.773438 0.375 264.652344 Z M -109.359375 99.839844 C -117.816406 103.191406 -124.472656 107.636719 -129 114.957031 C -135.65625 125.746094 -138.996094 138.550781 -138.988281 153.035156 C -138.984375 165.71875 -136.304688 179.636719 -131.246094 193.210938 C -121.394531 219.699219 -102.277344 240.871094 -77.464844 252.839844 C -54.140625 264.085938 -20.722656 274.445312 5.910156 259.722656 C 18.074219 253.039062 23.164062 240.792969 26.792969 228.582031 C 27.964844 224.785156 28.910156 220.964844 29.988281 216.929688 C 30.769531 213.9375 31.582031 210.882812 32.410156 207.875 C 34.03125 202.039062 36.390625 194.488281 40.023438 187.523438 C 44.179688 179.53125 49.804688 172.214844 54.246094 166.734375 C 56.492188 163.988281 58.753906 161.285156 60.988281 158.648438 L 61.015625 158.582031 C 64.066406 154.96875 67.21875 151.203125 70.164062 147.464844 C 79.339844 135.730469 87.558594 122.683594 85.8125 106.429688 C 83.730469 87.132812 76.660156 67.25 66.382812 51.8125 C 58.207031 39.472656 44 24.0625 23.113281 20.757812 C 4.910156 17.867188 -8.871094 29.292969 -21.042969 42.160156 C -24.25 45.511719 -27.414062 49.117188 -30.925781 53.078125 L -31.378906 53.589844 C -34.511719 57.128906 -37.75 60.816406 -41.015625 64.300781 C -46.695312 70.378906 -54.359375 78.070312 -63.367188 83.613281 C -72.113281 88.996094 -82.273438 91.769531 -92.152344 94.429688 C -94.765625 95.140625 -97.476562 95.890625 -100.074219 96.644531 C -103.332031 97.664062 -106.476562 98.695312 -109.359375 99.839844 Z M -109.359375 99.839844 " fill-opacity="1" fill-rule="nonzero"/></g></g></g><g clip-path="url(#e565b504ce)"><g clip-path="url(#0b938d5c44)"><g clip-path="url(#eb393a6e2c)"><path fill="#f2f2f2" d="M -3.867188 238.945312 C -24.128906 246.984375 -47.84375 239.445312 -64.75 231.28125 C -84.351562 221.839844 -99.402344 205.121094 -107.1875 184.265625 C -111.148438 173.589844 -113.261719 162.621094 -113.289062 152.625 C -113.324219 141.101562 -110.597656 130.890625 -105.316406 122.289062 C -100.332031 114.1875 -92.347656 110.472656 -81.929688 107.378906 C -79.917969 106.800781 -77.792969 106.230469 -75.78125 105.648438 C -68.28125 103.605469 -60.53125 101.511719 -54.027344 97.511719 L -53.507812 98.398438 L -54.027344 97.511719 C -48.75 94.269531 -43.546875 89.746094 -37.167969 82.949219 C -34.679688 80.265625 -32.179688 77.46875 -29.777344 74.710938 L -29.445312 74.308594 C -26.613281 71.105469 -24.21875 68.460938 -21.757812 65.84375 C -12 55.578125 -0.972656 46.445312 13.902344 48.796875 C 27.203125 50.902344 39.144531 59.503906 48.496094 73.5625 C 56.59375 85.710938 62.15625 101.378906 63.777344 116.484375 C 65.175781 129.652344 58.613281 140.128906 51.3125 149.421875 C 49.078125 152.332031 46.617188 155.222656 44.230469 158.027344 C 42.527344 160.070312 40.726562 162.148438 39.015625 164.304688 C 35.625 168.441406 31.382812 174.003906 28.195312 180.027344 C 25.488281 185.199219 23.71875 190.933594 22.46875 195.363281 C 21.8125 197.703125 21.203125 200.023438 20.621094 202.277344 L 20.589844 202.339844 C 19.808594 205.332031 19 208.386719 18.105469 211.367188 C 15.160156 221.171875 11.074219 230.992188 1.113281 236.476562 C -0.40625 237.464844 -2.117188 238.25 -3.867188 238.945312 Z M -88.558594 111.757812 C -95.027344 114.324219 -100.132812 117.71875 -103.582031 123.351562 C -113.109375 138.886719 -113.746094 160.84375 -105.28125 183.5625 C -97.703125 203.902344 -82.976562 220.199219 -63.886719 229.464844 C -45.953125 238.148438 -20.21875 246.089844 0.230469 234.804688 C 9.570312 229.675781 13.4375 220.269531 16.226562 210.90625 C 17.09375 207.992188 17.847656 205.070312 18.6875 201.949219 L 18.714844 201.882812 C 19.296875 199.628906 19.9375 197.242188 20.59375 194.90625 C 21.871094 190.40625 23.699219 184.542969 26.488281 179.171875 C 29.714844 172.972656 34.078125 167.304688 37.496094 163.101562 C 39.230469 160.996094 41.011719 158.867188 42.714844 156.824219 C 45.101562 154.019531 47.515625 151.148438 49.75 148.238281 C 56.777344 139.214844 63.136719 129.203125 61.792969 116.722656 C 60.175781 101.894531 54.742188 86.554688 46.867188 74.699219 C 40.589844 65.214844 29.660156 53.371094 13.613281 50.824219 C -0.335938 48.597656 -10.902344 57.382812 -20.261719 67.273438 C -22.722656 69.890625 -25.070312 72.515625 -27.902344 75.71875 L -28.234375 76.121094 C -30.65625 78.832031 -33.136719 81.675781 -35.671875 84.378906 C -40.09375 89.082031 -45.988281 95.03125 -52.992188 99.285156 C -59.761719 103.449219 -67.65625 105.597656 -75.25 107.679688 C -77.28125 108.210938 -79.402344 108.78125 -81.351562 109.390625 C -83.917969 110.082031 -86.289062 110.859375 -88.558594 111.757812 Z M -88.558594 111.757812 " fill-opacity="1" fill-rule="nonzero"/></g></g></g></g></g></g></g><g clip-path="url(#497461694c)"><g clip-path="url(#5fcbee47e0)"><g clip-path="url(#8d30063e79)"><path fill="#ff7900" d="M 318.46875 625.910156 C 317.671875 607.691406 310.429688 588.75 296.613281 577.085938 C 300.03125 574.957031 305.984375 569.0625 305.789062 569.222656 C 302.511719 571.90625 298.941406 574.121094 295.078125 575.867188 C 294.535156 575.445312 294.007812 575.007812 293.445312 574.609375 C 275.359375 561.71875 253.476562 564.644531 233.855469 565.789062 C 228.269531 566.132812 222.683594 566.183594 217.09375 565.941406 C 210.59375 562.535156 204.210938 558.78125 197.914062 554.886719 C 176.632812 541.722656 155.648438 527.242188 132.1875 519.917969 C 122.378906 516.835938 112.34375 515 102.078125 514.414062 C 91.8125 513.828125 81.632812 514.511719 71.539062 516.460938 C 51.980469 520.300781 33.160156 528.921875 19.367188 544.191406 C 15.953125 547.90625 13.027344 551.976562 10.589844 556.394531 C 8.152344 560.816406 6.269531 565.460938 4.941406 570.328125 C 2.363281 580.113281 2.644531 590.476562 4.890625 600.667969 C 9.390625 621.089844 19.988281 640.125 20.320312 661.261719 C 20.664062 683.164062 11.648438 703.152344 4.433594 722.507812 C -2.679688 741.589844 -9.210938 762.046875 -6.457031 783.648438 C -4.132812 801.882812 4.15625 819.054688 15.671875 833.003906 C 27.53125 847.371094 42.820312 858.289062 59.421875 864.203125 C 77 870.464844 95.832031 870.289062 113.03125 865.6875 C 130.65625 860.976562 146.933594 851.4375 160.441406 838.800781 C 167.578125 832.113281 173.894531 824.726562 179.390625 816.636719 C 186.304688 806.488281 192.179688 795.535156 198.410156 784.863281 C 204.574219 774.3125 211.1875 764.117188 219.226562 755.214844 C 226.976562 746.628906 235.710938 739.199219 244.636719 732.097656 C 262.558594 717.84375 281.488281 704.675781 296.332031 686.523438 C 309.835938 670.015625 319.492188 649.292969 318.46875 625.910156 Z M 318.46875 625.910156 " fill-opacity="1" fill-rule="nonzero"/></g></g></g><g clip-path="url(#7cd96441a2)"><g clip-path="url(#879bf82328)"><g clip-path="url(#c048ede4f5)"><path fill="#f2f2f2" d="M 275.53125 355.546875 C 272.28125 357.722656 268.273438 357.816406 264.53125 357.199219 C 261.289062 356.675781 258.140625 355.667969 255.164062 354.296875 C 249.167969 351.53125 244.011719 347.34375 239.492188 342.585938 C 236.894531 339.847656 234.644531 336.832031 232.265625 333.914062 C 231.480469 332.941406 229.933594 334 230.671875 335.058594 C 232.695312 337.929688 235.148438 340.578125 237.613281 343.082031 C 240.074219 345.570312 242.679688 347.894531 245.496094 349.964844 C 250.980469 354 257.121094 357.160156 263.886719 358.316406 C 267.988281 359.003906 272.761719 359.210938 276.1875 356.472656 C 276.738281 356.015625 276.128906 355.136719 275.53125 355.546875 Z M 275.53125 355.546875 " fill-opacity="1" fill-rule="nonzero"/></g></g></g><g clip-path="url(#bf8110f028)"><g clip-path="url(#f9dfa06b7f)"><g clip-path="url(#231e6f9727)"><path fill="#f2f2f2" d="M 258.699219 364.667969 C 256.878906 364.375 255.03125 364.042969 253.292969 363.429688 C 251.570312 362.832031 249.929688 362.007812 248.390625 361.035156 C 247.828125 360.679688 247.21875 361.640625 247.773438 362.011719 C 250.925781 364.167969 254.8125 365.625 258.660156 365.578125 C 259.175781 365.582031 259.207031 364.753906 258.699219 364.667969 Z M 258.699219 364.667969 " fill-opacity="1" fill-rule="nonzero"/></g></g></g><g mask="url(#48ec17bd8f)"><g transform="matrix(1, 0, 0, 1, 4, 497)"><g clip-path="url(#bb2500f4d1)"><g clip-path="url(#e7abadc603)"><g clip-path="url(#4a6a690475)"><g clip-path="url(#68933407a5)"><path fill="#f2f2f2" d="M 49.203125 12.859375 C 46.226562 13.507812 43.316406 14.53125 40.507812 15.683594 C 37.722656 16.832031 34.976562 18.117188 32.34375 19.585938 C 27.023438 22.566406 22.035156 26.160156 17.5 30.238281 C 14.9375 32.554688 12.539062 35.054688 10.382812 37.761719 C 10.074219 38.140625 10.019531 38.648438 10.382812 39.011719 C 10.707031 39.335938 11.324219 39.371094 11.632812 39.011719 C 15.597656 34.464844 19.867188 30.210938 24.632812 26.503906 C 29.328125 22.847656 34.464844 19.71875 39.820312 17.148438 C 42.914062 15.660156 46.101562 14.425781 49.28125 13.167969 C 49.464844 13.085938 49.40625 12.8125 49.203125 12.859375 Z M 49.203125 12.859375 " fill-opacity="1" fill-rule="nonzero"/></g></g></g><g clip-path="url(#cc4c539d1b)"><g clip-path="url(#7f2ae93235)"><g clip-path="url(#ab6abe4f53)"><path fill="#f2f2f2" d="M 27.257812 13.5 C 25.425781 14.328125 23.648438 15.28125 21.957031 16.390625 C 20.308594 17.472656 18.644531 18.644531 17.242188 20.046875 C 16.671875 20.617188 17.515625 21.410156 18.125 20.925781 C 19.648438 19.683594 21.109375 18.398438 22.730469 17.289062 C 24.328125 16.1875 25.980469 15.183594 27.699219 14.292969 C 28.238281 14.019531 27.789062 13.253906 27.257812 13.5 Z M 27.257812 13.5 " fill-opacity="1" fill-rule="nonzero"/></g></g></g><g clip-path="url(#bb46c68f29)"><g clip-path="url(#adb67f6565)"><g clip-path="url(#40851740eb)"><path fill="#f2f2f2" d="M 7.121094 41.722656 C 7.113281 41.75 7.097656 41.785156 7.097656 41.820312 C 6.957031 42.226562 7.121094 42.761719 7.429688 43.054688 C 7.675781 43.285156 7.984375 43.433594 8.339844 43.433594 C 8.671875 43.433594 9.007812 43.292969 9.246094 43.054688 C 9.414062 42.886719 9.519531 42.691406 9.582031 42.472656 C 9.632812 42.261719 9.640625 42.042969 9.582031 41.820312 C 9.570312 41.792969 9.554688 41.757812 9.554688 41.722656 C 9.511719 41.628906 9.476562 41.523438 9.429688 41.425781 C 9.351562 41.273438 9.238281 41.144531 9.097656 41.054688 C 9.015625 40.976562 8.929688 40.921875 8.8125 40.894531 C 8.671875 40.824219 8.515625 40.789062 8.347656 40.800781 C 8.125 40.808594 7.925781 40.871094 7.730469 40.957031 C 7.582031 41.035156 7.449219 41.152344 7.359375 41.292969 C 7.238281 41.414062 7.15625 41.566406 7.121094 41.722656 Z M 7.121094 41.722656 " fill-opacity="1" fill-rule="nonzero"/></g></g></g></g></g></g><g clip-path="url(#2853e3d2f9)"><g clip-path="url(#2f6c2cecc1)"><g clip-path="url(#2784ff0f27)"><path fill="#ff7900" d="M 347.636719 175.0625 C 342.570312 166.761719 334.304688 159.785156 324.847656 157.902344 C 325.894531 156.027344 327.15625 151.738281 327.105469 151.867188 C 326.265625 153.964844 325.171875 155.917969 323.816406 157.730469 C 323.457031 157.671875 323.097656 157.605469 322.730469 157.5625 C 310.964844 156.207031 301.503906 163.210938 292.636719 168.804688 C 290.117188 170.40625 287.523438 171.867188 284.851562 173.195312 C 280.9375 173.28125 276.988281 173.171875 273.046875 172.976562 C 259.71875 172.316406 246.1875 170.964844 233.347656 173.59375 C 227.972656 174.683594 222.8125 176.414062 217.871094 178.785156 C 212.929688 181.15625 208.351562 184.101562 204.140625 187.613281 C 196 194.445312 189.433594 203.320312 186.929688 214.007812 C 185.640625 219.3125 185.644531 224.621094 186.933594 229.929688 C 188.25 235.160156 191.054688 239.925781 194.726562 244.105469 C 202.09375 252.480469 211.949219 258.636719 217.550781 268.417969 C 223.359375 278.554688 224.300781 290.210938 225.921875 301.105469 C 227.519531 311.851562 229.742188 323.085938 236.597656 332.460938 C 242.382812 340.375 250.675781 346.253906 259.648438 349.796875 C 268.890625 353.449219 278.84375 354.605469 288.117188 353.085938 C 297.9375 351.480469 306.6875 346.542969 313.53125 339.964844 C 320.542969 333.21875 325.683594 324.570312 328.734375 315.1875 C 330.339844 310.226562 331.386719 305.148438 331.867188 299.957031 C 332.480469 293.4375 332.398438 286.808594 332.558594 280.21875 C 332.714844 273.707031 333.175781 267.242188 334.632812 261.011719 C 336.039062 255.007812 338.199219 249.285156 340.539062 243.671875 C 345.230469 232.398438 350.675781 221.367188 352.925781 209.066406 C 354.972656 197.878906 354.140625 185.714844 347.636719 175.0625 Z M 347.636719 175.0625 " fill-opacity="1" fill-rule="nonzero"/></g></g></g><g mask="url(#c0ad05c8ab)"><g transform="matrix(1, 0, 0, 1, 187, 372)"><g clip-path="url(#21198695da)"><g clip-path="url(#544a105889)"><g clip-path="url(#65d173fe32)"><g clip-path="url(#d8d9ce985e)"><path fill="#f2f2f2" d="M 140.886719 168.632812 C 127.375 180.242188 106.992188 180.753906 91.683594 178.945312 C 73.992188 176.863281 57.839844 167.945312 46.253906 153.859375 C 40.316406 146.628906 35.753906 138.738281 33.058594 130.972656 C 29.988281 122.074219 29.335938 113.457031 31.136719 105.394531 C 32.824219 97.84375 37.96875 92.867188 45.195312 87.730469 C 46.613281 86.722656 48.105469 85.714844 49.519531 84.742188 C 54.804688 81.136719 60.285156 77.433594 64.304688 72.519531 L 64.707031 72.867188 L 64.304688 72.519531 C 67.550781 68.554688 70.398438 63.644531 73.5625 56.5625 C 74.792969 53.804688 76 50.933594 77.121094 48.167969 L 77.300781 47.769531 C 78.644531 44.539062 79.78125 41.828125 80.988281 39.125 C 85.773438 28.605469 91.875 18.578125 103.941406 16.453125 C 114.746094 14.546875 126.277344 17.972656 137.269531 26.367188 C 146.765625 33.625 155.277344 44.253906 160.609375 55.574219 C 165.179688 65.328125 162.890625 75.160156 159.757812 84.332031 C 158.757812 87.203125 157.644531 90.097656 156.574219 92.925781 L 156.570312 92.960938 C 155.785156 94.988281 154.972656 97.105469 154.199219 99.191406 C 152.675781 103.34375 150.828125 108.8125 150.015625 114.394531 C 149.296875 119.203125 149.464844 124.152344 149.664062 127.933594 C 149.773438 129.914062 149.921875 131.902344 150.074219 133.8125 C 150.273438 136.382812 150.46875 138.984375 150.589844 141.546875 C 150.929688 149.882812 150.40625 158.542969 144.183594 165.414062 C 143.128906 166.566406 142.042969 167.636719 140.886719 168.632812 Z M 40.835938 92.414062 C 36.433594 96.199219 33.351562 100.234375 32.164062 105.621094 C 30.410156 113.5 31.0625 121.914062 34.074219 130.621094 C 36.71875 138.253906 41.199219 146.042969 47.089844 153.179688 C 58.503906 167.066406 74.386719 175.828125 91.820312 177.890625 C 108.179688 179.835938 130.40625 179.09375 143.398438 164.703125 C 149.355469 158.128906 149.863281 149.691406 149.523438 141.597656 C 149.417969 139.054688 149.222656 136.453125 149.023438 133.921875 C 148.875 131.972656 148.726562 129.984375 148.597656 127.984375 C 148.382812 124.148438 148.222656 119.121094 148.945312 114.238281 C 149.800781 108.585938 151.65625 103.042969 153.183594 98.855469 C 153.9375 96.75 154.765625 94.652344 155.535156 92.605469 L 155.539062 92.566406 C 156.628906 89.761719 157.742188 86.863281 158.71875 84.011719 C 161.800781 75.058594 164.050781 65.46875 159.621094 56.039062 C 154.371094 44.894531 146 34.386719 136.609375 27.210938 C 123.027344 16.851562 111.433594 16.214844 104.105469 17.488281 C 92.511719 19.519531 86.597656 29.28125 81.925781 39.566406 C 80.699219 42.25 79.582031 44.945312 78.238281 48.175781 L 78.058594 48.574219 C 76.917969 51.355469 75.730469 54.210938 74.480469 56.984375 C 72.324219 61.816406 69.324219 68 65.078125 73.171875 C 60.953125 78.210938 55.414062 81.964844 50.050781 85.601562 C 48.636719 86.574219 47.144531 87.582031 45.746094 88.574219 C 44.011719 89.859375 42.351562 91.113281 40.835938 92.414062 Z M 40.835938 92.414062 " fill-opacity="1" fill-rule="nonzero"/></g></g></g><g clip-path="url(#c8fa5f10b5)"><g clip-path="url(#552b956412)"><g clip-path="url(#ffe6d30800)"><path fill="#f2f2f2" d="M 140.6875 168.804688 C 127.175781 180.414062 106.792969 180.921875 91.484375 179.113281 C 73.792969 177.03125 57.640625 168.117188 46.054688 154.03125 C 40.117188 146.800781 35.554688 138.910156 32.859375 131.144531 C 29.789062 122.246094 29.136719 113.628906 30.9375 105.566406 C 32.625 98.015625 37.769531 93.039062 44.996094 87.902344 C 46.414062 86.890625 47.90625 85.886719 49.320312 84.914062 C 54.605469 81.308594 60.085938 77.601562 64.105469 72.691406 L 64.507812 73.039062 L 64.105469 72.691406 C 67.351562 68.726562 70.199219 63.816406 73.363281 56.734375 C 74.59375 53.976562 75.800781 51.105469 76.921875 48.339844 L 77.101562 47.941406 C 78.445312 44.707031 79.582031 42 80.789062 39.296875 C 85.574219 28.777344 91.675781 18.75 103.742188 16.625 C 114.542969 14.71875 126.078125 18.144531 137.070312 26.539062 C 146.566406 33.796875 155.078125 44.425781 160.410156 55.746094 C 164.980469 65.5 162.691406 75.332031 159.558594 84.503906 C 158.558594 87.375 157.445312 90.269531 156.375 93.09375 L 156.371094 93.132812 C 155.585938 95.160156 154.773438 97.277344 154 99.363281 C 152.476562 103.515625 150.628906 108.984375 149.816406 114.566406 C 149.097656 119.375 149.265625 124.324219 149.464844 128.105469 C 149.574219 130.085938 149.722656 132.074219 149.875 133.984375 C 150.074219 136.554688 150.269531 139.15625 150.390625 141.71875 C 150.730469 150.054688 150.207031 158.714844 143.984375 165.585938 C 142.929688 166.738281 141.84375 167.808594 140.6875 168.804688 Z M 40.636719 92.585938 C 36.234375 96.371094 33.152344 100.402344 31.964844 105.792969 C 30.210938 113.671875 30.863281 122.085938 33.875 130.792969 C 36.519531 138.425781 41 146.214844 46.890625 153.351562 C 58.304688 167.234375 74.1875 176 91.621094 178.0625 C 107.980469 180.007812 130.207031 179.265625 143.199219 164.875 C 149.15625 158.300781 149.664062 149.863281 149.324219 141.769531 C 149.21875 139.226562 149.023438 136.621094 148.824219 134.09375 C 148.675781 132.144531 148.527344 130.15625 148.398438 128.152344 C 148.183594 124.316406 148.023438 119.292969 148.746094 114.410156 C 149.601562 108.757812 151.457031 103.214844 152.984375 99.023438 C 153.738281 96.921875 154.566406 94.824219 155.335938 92.773438 L 155.339844 92.738281 C 156.429688 89.933594 157.542969 87.035156 158.519531 84.183594 C 161.601562 75.230469 163.851562 65.640625 159.421875 56.210938 C 154.171875 45.066406 145.800781 34.558594 136.410156 27.382812 C 122.828125 17.023438 111.234375 16.386719 103.90625 17.660156 C 92.3125 19.691406 86.398438 29.453125 81.726562 39.738281 C 80.5 42.421875 79.382812 45.113281 78.039062 48.347656 L 77.859375 48.746094 C 76.71875 51.527344 75.53125 54.382812 74.28125 57.15625 C 72.125 61.988281 69.125 68.167969 64.878906 73.34375 C 60.753906 78.378906 55.214844 82.136719 49.851562 85.773438 C 48.4375 86.746094 46.945312 87.753906 45.546875 88.746094 C 43.8125 90.03125 42.152344 91.285156 40.636719 92.585938 Z M 40.636719 92.585938 " fill-opacity="1" fill-rule="nonzero"/></g></g></g><g clip-path="url(#4969dc1d84)"><g clip-path="url(#9f6d32ecc9)"><g clip-path="url(#5370e9d2aa)"><path fill="#f2f2f2" d="M 134.261719 156.933594 C 123.242188 166.402344 106.613281 166.804688 94.128906 165.339844 C 79.722656 163.65625 66.558594 156.402344 57.101562 144.917969 C 52.257812 139.035156 48.535156 132.570312 46.367188 126.257812 C 43.859375 118.988281 43.328125 111.960938 44.777344 105.382812 C 46.15625 99.207031 50.355469 95.144531 56.261719 90.933594 C 57.40625 90.125 58.625 89.285156 59.78125 88.5 C 64.085938 85.5625 68.542969 82.527344 71.808594 78.546875 C 74.453125 75.335938 76.765625 71.335938 79.34375 65.589844 L 79.832031 65.792969 L 79.34375 65.589844 C 80.351562 63.335938 81.308594 61.023438 82.246094 58.765625 L 82.382812 58.4375 C 83.449219 55.894531 84.386719 53.597656 85.390625 51.382812 C 89.300781 42.789062 94.28125 34.59375 104.15625 32.863281 C 112.972656 31.3125 122.398438 34.09375 131.378906 40.957031 C 139.132812 46.871094 146.058594 55.539062 150.390625 64.769531 C 154.128906 72.746094 152.257812 80.765625 149.679688 88.25 C 148.871094 90.574219 147.964844 92.945312 147.066406 95.242188 L 147.0625 95.28125 C 146.433594 96.929688 145.765625 98.648438 145.152344 100.351562 C 143.925781 103.726562 142.417969 108.175781 141.738281 112.707031 C 141.144531 116.613281 141.289062 120.648438 141.464844 123.71875 C 141.570312 125.328125 141.6875 126.957031 141.8125 128.511719 C 141.972656 130.59375 142.144531 132.730469 142.230469 134.804688 C 142.515625 141.628906 142.078125 148.691406 136.992188 154.308594 C 136.121094 155.265625 135.199219 156.128906 134.261719 156.933594 Z M 52.835938 94.886719 C 49.269531 97.953125 46.765625 101.246094 45.785156 105.589844 C 44.351562 111.980469 44.878906 118.804688 47.324219 125.882812 C 49.464844 132.082031 53.121094 138.429688 57.882812 144.210938 C 67.167969 155.496094 80.078125 162.621094 94.226562 164.285156 C 107.523438 165.851562 125.601562 165.277344 136.136719 153.589844 C 140.953125 148.273438 141.375 141.429688 141.089844 134.847656 C 141.023438 132.792969 140.839844 130.769531 140.6875 128.613281 C 140.566406 127.023438 140.445312 125.390625 140.34375 123.78125 C 140.152344 120.65625 140.03125 116.566406 140.632812 112.550781 C 141.316406 107.945312 142.832031 103.417969 144.078125 99.992188 C 144.710938 98.269531 145.363281 96.566406 146.011719 94.902344 L 146.011719 94.863281 C 146.894531 92.585938 147.800781 90.210938 148.609375 87.886719 C 151.113281 80.605469 152.929688 72.84375 149.335938 65.195312 C 145.066406 56.113281 138.257812 47.589844 130.628906 41.777344 C 124.550781 37.125 115.011719 31.988281 104.246094 33.894531 C 94.859375 35.550781 90.050781 43.460938 86.273438 51.800781 C 85.269531 53.980469 84.332031 56.277344 83.285156 58.804688 L 83.148438 59.128906 C 82.214844 61.390625 81.253906 63.738281 80.246094 65.992188 C 78.496094 69.921875 76.046875 74.972656 72.578125 79.199219 C 69.210938 83.304688 64.710938 86.375 60.332031 89.339844 C 59.175781 90.128906 57.976562 90.953125 56.835938 91.761719 C 55.414062 92.808594 54.050781 93.839844 52.835938 94.886719 Z M 52.835938 94.886719 " fill-opacity="1" fill-rule="nonzero"/></g></g></g><g clip-path="url(#0d4dc38942)"><g clip-path="url(#547edbcd2a)"><g clip-path="url(#4acd7121c4)"><path fill="#f2f2f2" d="M 127.851562 145.082031 C 119.304688 152.429688 106.445312 152.746094 96.804688 151.605469 C 85.632812 150.296875 75.457031 144.664062 68.132812 135.78125 C 64.398438 131.234375 61.515625 126.226562 59.816406 121.347656 C 57.855469 115.722656 57.464844 110.273438 58.597656 105.175781 C 59.667969 100.375 62.945312 97.214844 67.511719 93.945312 C 68.398438 93.324219 69.339844 92.6875 70.226562 92.0625 C 73.546875 89.800781 76.984375 87.46875 79.488281 84.417969 L 79.890625 84.765625 L 79.488281 84.417969 C 81.519531 81.941406 83.296875 78.855469 85.269531 74.457031 C 86.035156 72.726562 86.785156 70.9375 87.492188 69.183594 L 87.585938 68.929688 C 88.429688 66.890625 89.15625 65.191406 89.917969 63.5 C 92.953125 56.835938 96.804688 50.511719 104.472656 49.152344 C 111.328125 47.9375 118.613281 50.128906 125.554688 55.421875 C 131.5625 59.996094 136.921875 66.714844 140.261719 73.824219 C 143.164062 80.023438 141.726562 86.25 139.726562 92.023438 C 139.125 93.824219 138.40625 95.652344 137.714844 97.425781 C 137.226562 98.710938 136.699219 100.03125 136.222656 101.375 C 135.265625 103.964844 134.128906 107.402344 133.585938 110.882812 C 133.136719 113.867188 133.238281 116.964844 133.375 119.34375 C 133.449219 120.597656 133.542969 121.832031 133.636719 123.03125 L 133.632812 123.070312 C 133.757812 124.664062 133.875 126.292969 133.941406 127.898438 C 134.15625 133.1875 133.816406 138.679688 129.871094 143.039062 C 129.292969 143.777344 128.589844 144.449219 127.851562 145.082031 Z M 65.011719 97.203125 C 62.28125 99.550781 60.359375 102.070312 59.625 105.402344 C 57.585938 114.601562 60.976562 125.441406 68.949219 135.117188 C 76.082031 143.78125 86.027344 149.265625 96.921875 150.570312 C 107.148438 151.792969 121.066406 151.335938 129.15625 142.371094 C 132.855469 138.289062 133.160156 133.039062 132.945312 127.992188 C 132.878906 126.421875 132.753906 124.867188 132.636719 123.199219 L 132.640625 123.164062 C 132.542969 121.960938 132.453125 120.6875 132.382812 119.433594 C 132.246094 117.019531 132.152344 113.847656 132.609375 110.75 C 133.140625 107.175781 134.316406 103.671875 135.28125 101.042969 C 135.773438 99.71875 136.28125 98.378906 136.769531 97.09375 C 137.464844 95.320312 138.160156 93.507812 138.761719 91.707031 C 140.675781 86.113281 142.09375 80.148438 139.332031 74.277344 C 136.042969 67.300781 130.800781 60.71875 124.953125 56.253906 C 120.285156 52.675781 112.945312 48.730469 104.671875 50.191406 C 97.476562 51.457031 93.796875 57.53125 90.890625 63.945312 C 90.128906 65.640625 89.421875 67.316406 88.578125 69.359375 L 88.484375 69.613281 C 87.757812 71.347656 87.027344 73.15625 86.242188 74.902344 C 84.875 77.949219 82.996094 81.851562 80.292969 85.109375 C 77.683594 88.285156 74.1875 90.667969 70.828125 92.964844 C 69.925781 93.570312 68.984375 94.207031 68.136719 94.832031 C 66.996094 95.601562 65.96875 96.382812 65.011719 97.203125 Z M 65.011719 97.203125 " fill-opacity="1" fill-rule="nonzero"/></g></g></g></g></g></g></svg>